<svg width="512" height="512" viewBox="0 0 512 512" fill="none" xmlns="http://www.w3.org/2000/svg">
<path d="M459.576 153.703C457.67 149.319 455.287 144.448 452.905 140.063L438.132 152.729C439.562 155.651 440.991 158.574 442.421 161.497C457.194 194.135 463.865 228.721 462.436 264.768C460.053 323.711 435.749 378.269 394.29 419.188C350.448 462.055 292.787 484.463 232.266 482.028C172.699 480.079 118.373 454.261 77.867 409.446C37.8375 365.117 16.8697 307.149 19.2524 246.745C21.6351 187.802 45.9387 133.244 87.3978 92.3248C128.857 51.8931 183.183 29.4851 240.844 29.4851C243.703 29.4851 247.039 29.4851 249.898 29.4851C311.372 32.4079 367.604 59.6871 408.11 107.426C409.063 108.4 410.016 109.374 410.493 110.349L422.883 95.2475L422.406 94.7604C379.041 43.6119 316.614 12.9228 250.375 10C247.039 10 243.703 10 240.367 10C111.225 10 5.43275 113.758 0.190801 246.257C-5.05115 381.679 98.3583 496.154 231.313 502C234.649 502 237.985 502 241.321 502C370.94 502 476.255 398.242 481.497 265.743C482.927 227.259 475.302 188.776 459.576 153.703Z" fill="white"/>
<path d="M468.631 66.0199C474.826 72.3526 483.404 81.6081 492.458 91.3506L228.931 344.17L111.701 264.768L130.763 235.541L217.017 293.509L226.548 299.842L234.649 292.048L468.631 66.0199ZM468.631 46.0477L224.165 281.331L126.474 215.081L91.6868 268.665L230.36 362.681L511.996 92.3249C512.472 92.3249 470.537 46.0477 468.631 46.0477Z" fill="white"/>
</svg>
