<svg width="512" height="512" viewBox="0 0 512 512" fill="none" xmlns="http://www.w3.org/2000/svg">
<path d="M255.95 24.7364C258.966 24.7364 262.486 24.7364 265.502 24.7364C329.854 27.2501 388.172 55.404 430.403 104.17C444.983 120.761 457.049 139.865 466.601 159.975C481.683 193.157 488.722 228.852 487.213 265.552C484.7 325.379 459.562 381.687 416.326 423.415C373.09 465.143 316.28 487.766 256.453 487.766C253.436 487.766 249.917 487.766 246.9 487.766C119.706 482.739 20.1616 374.648 25.1891 247.453C27.7028 187.626 52.8402 131.319 96.0764 89.5907C139.313 47.36 196.123 24.7364 255.95 24.7364ZM255.95 4.62653C121.716 4.62653 10.6094 110.706 5.0792 245.945C-0.451021 384.703 107.64 501.843 245.895 507.373C249.414 507.373 252.933 507.373 255.95 507.373C390.183 507.373 501.29 401.294 506.821 266.055C508.329 225.332 500.285 186.118 484.197 151.429C474.142 129.308 460.568 109.198 444.983 91.099C401.244 40.8243 337.395 8.14575 265.502 5.12927C262.486 4.62652 258.966 4.62653 255.95 4.62653Z" fill="white"/>
<path d="M346.947 393.25L256.453 304.264L164.953 391.742L120.711 338.953L207.183 256L121.716 172.041L166.461 119.253L256.955 208.239L348.455 120.761L392.697 174.052L306.225 257.005L391.692 340.964L346.947 393.25ZM256.453 283.148L345.942 370.626L371.079 340.964L284.606 256L372.084 172.041L347.45 141.876L256.955 228.349L167.466 140.871L142.329 170.533L228.802 255.497L141.324 339.456L165.958 369.621L256.453 283.148Z" fill="white"/>
</svg>
